<?xml version="1.0" encoding="UTF-8"?>
<!DOCTYPE svg PUBLIC "-//W3C//DTD SVG 1.1//EN" "http://www.w3.org/Graphics/SVG/1.1/DTD/svg11.dtd">
<svg xmlns="http://www.w3.org/2000/svg" version="1.1" width="181px" height="169px" style="shape-rendering:geometricPrecision; text-rendering:geometricPrecision; image-rendering:optimizeQuality; fill-rule:evenodd; clip-rule:evenodd" xmlns:xlink="http://www.w3.org/1999/xlink">
<g><path style="opacity:0.786" fill="#bceddc" d="M 155.5,8.5 C 161.267,6.27993 162.601,7.61326 159.5,12.5C 159.5,11.1667 159.5,9.83333 159.5,8.5C 158.167,8.5 156.833,8.5 155.5,8.5 Z"/></g>
<g><path style="opacity:1" fill="#81dfc0" d="M 155.5,8.5 C 156.833,8.5 158.167,8.5 159.5,8.5C 159.5,9.83333 159.5,11.1667 159.5,12.5C 147.639,58.9438 135.305,105.277 122.5,151.5C 121.998,152.521 121.332,152.688 120.5,152C 112.298,143.965 104.298,135.798 96.5,127.5C 96.44,126.957 96.1067,126.624 95.5,126.5C 94.6143,127.325 94.281,128.325 94.5,129.5C 91.9793,140.565 89.1459,151.565 86,162.5C 85.2825,163.451 84.4491,163.617 83.5,163C 57.3333,136.833 31.1667,110.667 5,84.5C 4.72866,82.193 5.89532,81.0264 8.5,81C 18.4356,78.187 28.4356,75.687 38.5,73.5C 39.5,73.5 40.5,73.5 41.5,73.5C 41.7148,71.8212 41.0481,70.8212 39.5,70.5C 31.3684,62.8691 23.3684,55.0358 15.5,47C 16.1667,46.3333 16.8333,45.6667 17.5,45C 25.1505,43.0038 32.8172,41.1705 40.5,39.5C 43.1522,39.5905 45.4855,38.9238 47.5,37.5C 58.5685,33.8981 69.9019,30.8981 81.5,28.5C 84.1522,28.5905 86.4855,27.9238 88.5,26.5C 99.5685,22.8981 110.902,19.8981 122.5,17.5C 125.152,17.5905 127.485,16.9238 129.5,15.5C 137.894,12.5662 146.561,10.2328 155.5,8.5 Z"/></g>
<g><path style="opacity:0.949" fill="#aeead5" d="M 129.5,15.5 C 127.485,16.9238 125.152,17.5905 122.5,17.5C 124.515,16.0762 126.848,15.4095 129.5,15.5 Z"/></g>
<g><path style="opacity:0.945" fill="#aeead5" d="M 88.5,26.5 C 86.4855,27.9238 84.1522,28.5905 81.5,28.5C 83.5145,27.0762 85.8478,26.4095 88.5,26.5 Z"/></g>
<g><path style="opacity:0.929" fill="#aeead5" d="M 47.5,37.5 C 45.4855,38.9238 43.1522,39.5905 40.5,39.5C 42.5145,38.0762 44.8478,37.4095 47.5,37.5 Z"/></g>
<g><path style="opacity:1" fill="#02c181" d="M 110.5,53.5 C 111.833,53.5 113.167,53.5 114.5,53.5C 108.31,77.5958 101.81,101.596 95,125.5C 77.5,108 60,90.5 42.5,73C 65.2891,66.6812 87.9558,60.1812 110.5,53.5 Z"/></g>
<g><path style="opacity:0.42" fill="#c9f1e3" d="M 39.5,70.5 C 41.0481,70.8212 41.7148,71.8212 41.5,73.5C 40.5,73.5 39.5,73.5 38.5,73.5C 38.9175,72.7784 39.5842,72.2784 40.5,72C 39.944,71.6174 39.6107,71.1174 39.5,70.5 Z"/></g>
<g><path style="opacity:0.204" fill="#daf5ec" d="M 96.5,127.5 C 95.8333,128.167 95.1667,128.833 94.5,129.5C 94.281,128.325 94.6143,127.325 95.5,126.5C 96.1067,126.624 96.44,126.957 96.5,127.5 Z"/></g>
</svg>
